<?xml version="1.0" encoding="iso-8859-1"?>
<!-- Uploaded to: SVG Repo, www.svgrepo.com, Generator: SVG Repo Mixer Tools -->
<svg fill="#000000" height="800px" width="800px" version="1.1" id="Layer_1" xmlns="http://www.w3.org/2000/svg" xmlns:xlink="http://www.w3.org/1999/xlink" 
	 viewBox="0 0 512 512" xml:space="preserve">
<g>
	<g>
		<path d="M490.667,0H21.333C9.552,0,0,9.551,0,21.333v128v341.333C0,502.449,9.552,512,21.333,512h469.333
			c11.782,0,21.333-9.551,21.333-21.333V149.333v-128C512,9.551,502.45,0,490.667,0z M469.334,469.333L469.334,469.333H42.667
			V170.667h426.667V469.333z M469.334,128H42.667V42.667h426.667V128z"/>
	</g>
</g>
<g>
	<g>
		<path d="M85.333,64C73.557,64,64,73.557,64,85.333s9.557,21.333,21.333,21.333s21.333-9.557,21.333-21.333S97.109,64,85.333,64z"
			/>
	</g>
</g>
<g>
	<g>
		<path d="M149.333,64C137.557,64,128,73.557,128,85.333s9.557,21.333,21.333,21.333s21.333-9.557,21.333-21.333
			S161.109,64,149.333,64z"/>
	</g>
</g>
<g>
	<g>
		<path d="M213.333,64C201.557,64,192,73.557,192,85.333s9.557,21.333,21.333,21.333s21.333-9.557,21.333-21.333
			S225.109,64,213.333,64z"/>
	</g>
</g>
<g>
	<g>
		<path d="M362.667,405.334H149.333c-11.782,0-21.333,9.551-21.333,21.333c0,11.782,9.551,21.333,21.333,21.333h213.333
			c11.782,0,21.333-9.551,21.333-21.333C384,414.885,374.448,405.334,362.667,405.334z"/>
	</g>
</g>
<g>
	<g>
		<path d="M356.419,262.249c-8.331-8.331-21.839-8.331-30.17,0L256,332.497l-27.582-27.582c-8.331-8.331-21.839-8.331-30.17,0
			s-8.331,21.839,0,30.17l42.667,42.667c8.331,8.331,21.839,8.331,30.17,0l85.333-85.333
			C364.75,284.088,364.75,270.58,356.419,262.249z"/>
	</g>
</g>
</svg>